<svg t="1721706339552" class="icon" viewBox="0 0 1024 1024" version="1.1" xmlns="http://www.w3.org/2000/svg" p-id="9906" width="256" height="256"><path d="M841.216 319.488H183.808c-51.712 0-89.6 49.152-78.336 100.864l64 284.16c8.192 36.864 40.448 63.488 77.824 63.488h529.92c37.376 0 69.632-26.624 78.336-64l64-284.16c11.776-51.2-26.624-100.352-78.336-100.352zM255.488 467.968a49.152 49.152 0 1 1 98.304 0 49.152 49.152 0 0 1-98.304 0z m124.416 201.216a49.152 49.152 0 1 1 0-98.304 49.152 49.152 0 0 1 0 98.304z m16.896-199.68a49.152 49.152 0 1 1 98.304 0 49.152 49.152 0 0 1-98.304 0z m125.952 202.752a49.152 49.152 0 1 1 0-98.304 49.152 49.152 0 0 1 0 98.304z m15.872-200.192a49.152 49.152 0 1 1 98.304 0 49.152 49.152 0 0 1-98.304 0zM665.6 669.184a49.152 49.152 0 1 1 0-98.304 49.152 49.152 0 0 1 0 98.304z m64-146.432a49.152 49.152 0 1 1 0-98.304 49.152 49.152 0 0 1 0 98.304z" p-id="9907" fill="#e6e6e6"></path></svg>